<svg xmlns="http://www.w3.org/2000/svg" fill-rule="evenodd" clip-rule="evenodd" viewBox="0 0 24 24">
  <path d="M17.517 10.012a.5.5 0 01-.144.692l-2.2 1.444a.5.5 0 01-.549-.835l2.201-1.445a.498.498 0 01.692.144m-6.242-2.595l1.111-2.385a.499.499 0 11.906.421l-1.111 2.386a.5.5 0 01-.453.288l-.211-.047a.498.498 0 01-.242-.663m-2.624.613c1.377-2.652 1.484-5.104.318-7.286a.5.5 0 01.883-.47c1.33 2.49 1.225 5.254-.314 8.217a.5.5 0 01-.887-.461M24 13.556a.5.5 0 01-.671.47c-2.808-1.028-5.254-.821-7.271.611a.495.495 0 01-.696-.117.498.498 0 01.117-.696c2.301-1.637 5.059-1.884 8.193-.737a.5.5 0 01.328.469M7.516 10.948l2.865 7.517-2.248.964-2.753-7.512.778-2.176 1.358 1.207zm3.785 7.124l-2.168-5.687 5.025 4.463-2.857 1.224zm-8.27.419l.989 2.699-2.307.989 1.318-3.688zm1.823-5.103l2.358 6.435-2.271.973-1.384-3.777 1.297-3.631zM.001 24l15.997-6.853L5.715 8.01.001 24zm20.46-15.629l.552-.694.281.841.831.309-.713.528-.038.886-.723-.516-.854.238.268-.846-.491-.739.887-.007zm-1.384.885l-.639 2.019 2.041-.568 1.724 1.23.089-2.115 1.704-1.258-1.985-.739-.672-2.008-1.315 1.658-2.118.017 1.171 1.764zM16.91 5.062c.593-.044.924-.141 1.074-.315.176-.204.226-.647.165-1.433a.5.5 0 01.996-.083c.063.806.059 1.62-.402 2.156-.429.499-1.13.602-1.76.647-.702.052-.72.243-.774.878-.056.67-.152 1.744-1.84 1.933-1.017.115-1.433.33-1.377 1.956.008.275-.207.325-.484.325h-.016c-.269 0-.491-.022-.5-.291-.049-1.461.191-2.655 2.265-2.887.874-.099.9-.404.956-1.072.054-.635.145-1.7 1.697-1.814m5.264-3.048a.825.825 0 010 1.647.825.825 0 010-1.647m0 2.647a1.824 1.824 0 10-.002-3.648 1.824 1.824 0 00.002 3.648M13.728.999a1 1 0 110 1.996 1 1 0 010-1.996m0 2.998a2 2 0 100-3.995 2 2 0 000 3.995"/>
</svg>